<svg version="1.2" xmlns="http://www.w3.org/2000/svg" viewBox="0 0 1024 1024" width="256" height="256">
	<title>Random_Roll-ai</title>
	<defs>
		<linearGradient id="g1" x2="1" gradientUnits="userSpaceOnUse" gradientTransform="matrix(1023.999,1023.999,-1024.01,1024.01,511.631,-512.386)">
			<stop offset="0" stop-color="#8b9299"/>
			<stop offset="1" stop-color="#66707b"/>
		</linearGradient>
		<linearGradient id="g2" x2="1" gradientUnits="userSpaceOnUse" gradientTransform="matrix(919.066,919.066,-918.996,918.996,527.929,-423.694)">
			<stop offset="0" stop-color="#cccccc"/>
			<stop offset="1" stop-color="#f1f2f3"/>
		</linearGradient>
		<linearGradient id="g3" x2="1" gradientUnits="userSpaceOnUse" gradientTransform="matrix(636,636,-636,636,497.929,-89.928)">
			<stop offset="0" stop-color="#ae7fe2"/>
			<stop offset="1" stop-color="#2aafea"/>
		</linearGradient>
	</defs>
	<style>
		.s0 { fill: url(#g1) }
		.s1 { fill: url(#g2) }
		.s2 { fill: url(#g3) }
	</style>
	<g id="1">
		<path id="&lt;Compound Path&gt;" fill-rule="evenodd" class="s0" d="m1013.1 615.1c-0.4 2.3-0.9 4.5-1.3 6.5 0 0.3-0.1 0.5-0.2 0.8-22.9 103.3-77.1 195.1-152.1 264.6-0.8 1-1.5 1.9-2.4 2.7-44.8 41-97.5 74.5-156.5 97.8-1 0.3-1.9 0.7-2.9 1.1-2.4 0.9-4.9 1.9-7.4 2.8-2.6 1-5.3 1.9-8 2.9l-3.3 1.2c-52.4 18.2-108.7 28.1-167.2 28.1-53.9 0-105.9-8.4-154.8-23.9-0.1-0.1-0.2-0.1-0.3-0.1-1.2-0.4-2.5-0.8-3.7-1.2-2.6-0.8-5.1-1.6-7.6-2.5l-5.1-1.8c-2.5-0.9-5-1.8-7.4-2.7-1.8-0.6-3.6-1.3-5.4-2-2.3-0.8-4.5-1.7-6.7-2.6-2-0.8-4-1.7-6-2.5-1.9-0.7-3.7-1.5-5.5-2.3-2.3-1-4.7-2-7.1-3.1-1.1-0.6-2.3-1.1-3.4-1.6-48.2-22.1-92.9-51.5-132.2-87.3-0.9-0.7-1.5-1.6-2.2-2.4-78.8-72.7-134.6-169.9-155.6-279.3-0.1-0.3-0.1-0.7-0.2-1-0.7-3.8-1.4-7.5-2-11.3-0.2-1.3-0.4-2.5-0.6-3.8-0.4-2.5-0.7-5-1.1-7.5-0.3-2.4-0.7-4.9-1-7.3-0.1-0.8-0.2-1.5-0.3-2.3-7.1-56.5-4.6-112.6 6.4-166.2 0-0.2 0.1-0.5 0.1-0.7 0.5-2.2 0.9-4.4 1.4-6.6 0-0.3 0.1-0.5 0.2-0.8 22.9-103.3 77.1-195 152.1-264.5 0.8-1 1.5-1.9 2.4-2.7 44.9-41.1 97.6-74.6 156.5-97.9 1-0.3 1.9-0.7 2.9-1.1 2.4-0.9 4.9-1.9 7.4-2.8 2.7-1 5.4-1.9 8.1-2.9l3.3-1.2c52.5-18.2 108.8-28.1 167.3-28.1 53.9 0 105.9 8.4 154.7 23.8 0.1 0.1 0.2 0.1 0.3 0.1 1.2 0.4 2.5 0.8 3.7 1.2 2.6 0.8 5.1 1.6 7.6 2.5l5.1 1.8c2.5 0.9 5 1.8 7.4 2.7l5.4 2.1c2.2 0.8 4.4 1.7 6.6 2.6 2 0.8 4 1.7 6 2.5 1.8 0.7 3.6 1.5 5.4 2.3 2.3 1 4.7 2 7.1 3.1 1.1 0.6 2.3 1.1 3.4 1.6 48.2 22.1 92.9 51.5 132.2 87.4 0.9 0.7 1.5 1.6 2.2 2.4 78.8 72.7 134.6 169.8 155.6 279.2 0.1 0.3 0.1 0.7 0.2 1 0.7 3.8 1.4 7.5 2 11.3 0.2 1.3 0.4 2.5 0.6 3.8 0.4 2.5 0.7 5 1.1 7.5 0.3 2.4 0.7 4.9 1 7.3 0.1 0.8 0.2 1.5 0.3 2.3 7.2 56.6 4.6 112.6-6.4 166.3 0 0.2-0.1 0.5-0.1 0.7zm-171 227.1c57.1-57.3 99.6-129.2 121.1-209.5l-281-75.3c-11-2.9-17.7-13.6-16.2-24.9 1.9-13.6 1.9-27.6 0-41.7-1.6-11.2 5.3-21.9 16.2-24.8l280.9-75.4c-21.5-80.4-63.9-152.2-121.1-209.4l-205.5 205.5c-4.3 4.3-9.9 6.4-15.6 6.4-4.9 0-9.8-1.6-14-4.8-11-8.5-23.2-15.5-36.1-20.8-10.5-4.3-16.3-15.5-13.4-26.5l75.3-281c-38.6-10.3-79.2-15.9-121-15.9-41.8 0-82.4 5.5-121.1 15.9l75.4 280.9c2.9 11-2.9 22.2-13.4 26.5-13.2 5.3-25.2 12.4-36.1 20.8-4.2 3.3-9.2 4.9-14.1 4.9-5.7 0-11.4-2.1-15.7-6.4l-205.5-205.5c-57.1 57.2-99.6 129.1-121.1 209.4l280.9 75.4c11 2.9 17.7 13.6 16.2 24.9-1.9 13.6-1.9 27.6 0 41.7 1.6 11.2-5.3 21.9-16.2 24.8l-280.9 75.3c21.5 80.3 64 152.2 121.1 209.5l205.6-205.6c4.3-4.3 10-6.4 15.7-6.4 4.9 0 9.8 1.6 14 4.8 11 8.5 23.2 15.5 36.1 20.8 10.5 4.3 16.3 15.5 13.4 26.5l-75.4 281c38.7 10.3 79.3 15.9 121.1 15.9 41.8 0 82.4-5.5 121-15.9l-75.3-280.9c-2.9-11 2.9-22.2 13.4-26.5 13.2-5.3 25.2-12.4 36.1-20.8 4.2-3.3 9.2-4.9 14.1-4.9 5.7 0 11.3 2.1 15.6 6.4l205.5 205.6zm-219.1-330.5c0 61.4-49.8 111.3-111.2 111.3-61.4 0-111.3-49.9-111.3-111.3 0-46.5 28.4-87.2 70.7-103.6l9.7-64.3c2.3-15.4 15.3-26.5 30.8-26.5 15.5 0 28.5 11.2 30.8 26.5l9.7 64.3c42.3 16.5 70.8 57.1 70.8 103.6zm-44.6 0c0-31-21.1-57.8-51.3-65-10.7-2.5-20.2-2.5-30.9 0-30.2 7.2-51.3 34-51.3 65 0 36.8 30 66.8 66.8 66.8 36.8 0 66.8-30 66.7-66.8z"/>
		<path id="&lt;Compound Path&gt;" fill-rule="evenodd" class="s1" d="m842.1 842.2l-205.6-205.6c-4.3-4.3-9.9-6.4-15.6-6.4-4.9 0-9.9 1.6-14.1 4.9-10.9 8.4-22.9 15.5-36.1 20.8-10.5 4.3-16.3 15.5-13.4 26.5l75.3 280.9c-38.6 10.4-79.2 15.9-121 15.9-41.8 0-82.4-5.6-121-15.9l75.3-281c2.9-11-2.9-22.2-13.4-26.5-12.9-5.3-25.1-12.3-36.1-20.8-4.2-3.2-9.1-4.8-14-4.8-5.7 0-11.3 2.1-15.6 6.4l-205.6 205.6c-57.1-57.3-99.6-129.2-121.1-209.5l280.9-75.3c10.9-2.9 17.8-13.6 16.2-24.8-1.9-14.1-1.9-28.1 0-41.7 1.5-11.3-5.2-22-16.2-24.9l-280.9-75.4c21.5-80.3 64-152.2 121.1-209.4l205.5 205.5c4.3 4.3 9.9 6.4 15.6 6.4 4.9 0 9.9-1.6 14.1-4.9 10.9-8.4 22.9-15.5 36.1-20.8 10.5-4.3 16.3-15.5 13.4-26.5l-75.3-280.9c38.6-10.4 79.2-15.9 121-15.9 41.8 0 82.4 5.6 121 15.9l-75.3 281c-2.9 11 2.9 22.2 13.4 26.5 12.9 5.3 25.1 12.3 36.1 20.8 4.2 3.2 9.1 4.8 14 4.8 5.7 0 11.3-2.1 15.6-6.4l205.6-205.5c57.2 57.2 99.6 129 121.1 209.4l-281 75.4c-10.9 2.9-17.8 13.6-16.2 24.8 1.9 14.1 1.9 28.1 0 41.7-1.5 11.3 5.2 22 16.2 24.9l281.1 75.3c-21.5 80.3-64 152.2-121.1 209.5zm-290-434.1l-9.7-64.3c-2.3-15.3-15.3-26.5-30.8-26.5-15.5 0-28.5 11.1-30.8 26.5l-9.7 64.3c-42.3 16.4-70.7 57.1-70.7 103.6 0 61.4 49.9 111.3 111.3 111.3 61.4 0 111.2-49.9 111.2-111.3 0-46.5-28.5-87.1-70.8-103.6zm-40.5 170.4c-36.8 0-66.8-30-66.8-66.8 0-31 21.1-57.8 51.3-65 10.7-2.5 20.2-2.5 30.9 0 30.2 7.2 51.3 34 51.3 65 0.1 36.8-29.9 66.8-66.7 66.8z"/>
		<path id="Random" fill-rule="evenodd" class="s2" d="m868 344q0 5.2-3.4 8.6l-120 120q-3.3 3.4-8.6 3.4-4.9 0-8.4-3.6-3.6-3.5-3.6-8.4v-72h-96q-18 0-32.6 5.6-14.7 5.6-25.9 16.9-11.2 11.3-19.1 23.1-7.9 11.7-16.9 29-12 23.2-29.2 64.1-10.9 24.8-18.6 41.6-7.7 16.9-20.3 39.4-12.6 22.5-24 37.5-11.4 15-27.7 31.1-16.3 16.1-33.8 25.7-17.4 9.5-39.9 15.7-22.5 6.2-48 6.2h-84q-5.2 0-8.6-3.4-3.4-3.3-3.4-8.6v-72q0-5.2 3.4-8.6 3.3-3.4 8.6-3.4h84q18 0 32.6-5.6 14.7-5.6 25.9-16.9 11.2-11.3 19.1-23 7.9-11.8 16.9-29.1 12-23.2 29.2-64.1 10.9-24.8 18.6-41.6 7.7-16.9 20.3-39.4 12.6-22.5 24-37.5 11.4-15 27.7-31.1 16.3-16.1 33.8-25.7 17.4-9.5 39.9-15.7 22.5-6.2 48-6.2h96v-72q0-5.2 3.4-8.6 3.3-3.4 8.6-3.4 4.5 0 9 3.7l119.6 119.7q3.4 3.3 3.4 8.6zm0 336q0 5.2-3.4 8.6l-120 120q-3.4 3.4-8.6 3.4-4.9 0-8.5-3.6-3.5-3.5-3.5-8.4v-72q-12 0-31.9 0.2-19.9 0.2-30.4 0.4-10.5 0.2-27.4-0.4-16.8-0.6-26.6-1.9-9.8-1.3-24-3.9-14.2-2.7-23.6-7-9.4-4.3-21.8-10.7-12.3-6.4-22.1-15-9.8-8.5-20.6-20-10.9-11.5-21.1-26.1 22.2-34.9 51-102.4 8.3 16.9 13.9 27.2 5.6 10.3 15.2 23.8 9.5 13.5 19.1 21.2 9.5 7.6 23.6 13.1 14 5.5 30.6 5.4h96v-72q0-5.2 3.3-8.6 3.4-3.4 8.7-3.4 4.5 0 8.9 3.7l119.6 119.7q3.4 3.3 3.4 8.6zm-422.2-299.5q0-0.1-0.1-0.1 0 0 0.1 0zm-51.5 102.3q-8.2-16.9-13.8-27.2-5.6-10.3-15.2-23.8-9.5-13.5-19.1-21.2-9.6-7.6-23.6-13.1-14.1-5.4-30.6-5.4h-84q-5.2 0-8.6-3.4-3.4-3.3-3.4-8.6v-72q0-5.2 3.4-8.6 3.3-3.4 8.6-3.4h84q93.7 0 153.7 84.3-22.5 34.5-51.4 102.4z"/>
	</g>
</svg>